<svg xmlns="http://www.w3.org/2000/svg" width="260" height="340" viewBox="0 0 260 340"><path fill="#FFF" stroke="#231F20" stroke-miterlimit="10" d="M220 197.5c-.6.1-1.3.1-1.9.2 3.2 10-.1 19.2-2.9 28.6-2 6.7-2.4 14-4.7 20.6-2.3 6.4-2.7 12.8-1.8 19.6 1.7-3.1 3.4-6.3 5.5-10 5.3 9.4-3.2 15.6-4.3 23.1 4.1.1 4.1.1 10.8-7.7 1.3 3.3 2.6 6.7 4.2 11 3.4-12.8 3-19.4-1.3-30.6-.5-1.3-.8-2.7-.9-4.1-.4-4.8-.6-9.6-1-14.4-.5-5.6.4-10.6 3.9-15.2 9.5-12.3 12.1-26.2 9-41.3-.7-3.2-2.1-6.3-3.1-9.5-.5.1-1.1.2-1.6.3 1.3 15.2 1 30-7.4 43-.8-4.3-1.7-9-2.5-13.6zm-16.5 10.1c1.3-3.7 2.9-7.3 3.8-11.1.6-2.7.1-5.7.1-8.5-2.7.1-5.5-.3-8 .3-8.8 2.2-17.4 4-26.1-.2-.7-.4-3 .7-3.3 1.6-2.5 5.6 2.3 12 8.3 10.8 4.5-.9 8.1.1 11.1 3.4.7.7 1.7 1.2 2.5 1.8 1.2-3.2-2.5-8 3.3-8.9 4.6-.7 6.1 1.6 8.3 10.8zM123.7 231c-.5.3-1 .7-1.5 1 2.5 1.3 5 2.5 8.1 4.1 1.1-2.1 2.3-4.3 3.8-7.1.3-.1 1.5-.4 2.8-.7-5.6-1-6.7-5.4-8.1-9.6-1.2-3.7-2.6-7.5-3.8-11.2l-1.5.6c.9 2.2 1.9 4.4 3 7.1-1.3-.9-2.2-1.4-3.6-2.3.7 6.2 7.2 9.9 5.7 17-1.6-3-2.8-5.4-4.2-8-.3 3.3-.5 6.2-.7 9.1zM246 253.8c.1.2.2.4.4.6 2.9-5.3 5.9-10.6 8.8-15.9.4.2.7.3 1.1.5l-4.2 17.4c4.9-9.4 10-18.9 5.4-29.8-.5-.1-.9-.3-1.4-.4-3.4 9.2-6.8 18.4-10.1 27.6zM120.8 132.3l-1.2-.6c-.9 1.7-1.9 3.4-2.8 5-2.6 4.4-5.3 4.8-8.6.9-2.6-3.2-5.7-2.6-9.3-1.7 3.3 3.2 6.9 6.1 10.8 8.4 3.1 1.8 5.3.4 6.5-3 .7-1.9 2-3.7 2.9-5.5.6-1.2 1.1-2.3 1.7-3.5zm34.1 140.5c-.5-.3-1-.5-1.5-.8-4.4 8.4-8.8 16.8-13.2 25.3.5.2 1 .5 1.4.7 4.5-8.4 8.9-16.8 13.3-25.2zM95.8 152.6c.1.6.1 1.2.2 1.8 1.1-.2 2.1-.3 3.2-.5 1.9-.3 4-1.4 5.7-.8 5.7 1.8 10.6.8 15-2.3-7.9.6-16 1.2-24.1 1.8zm91.6 60.2c0 .6-.1 1.1-.1 1.7h18.1c-.7-.8-1.4-2.6-2.2-2.6-5.3.1-10.5.6-15.8.9zm-39.3 87.3c.4.2.9.3 1.3.5 2-7.3 4-14.5 6-21.8-.4-.1-.7-.2-1.1-.3-2 7.2-4.1 14.4-6.2 21.6z"/><path stroke="#231F20" stroke-miterlimit="10" d="M115.4 265.4c1.3 5 2.9 10 3.8 15.1 1 5.3 1.9 10.6 2.1 15.9.1 3.1 1.1 5.1 3.4 6.8 6.1 4.8 13.1 5.8 20.5 4.4 1.2-.2 2.3-.4 4.5-.8-7.6 7.6-15.8 6.7-24.3 5.1 2.3 3.9 3.6 4.5 11 4.9 0 .4.1.8.1 1.2-3.7.3-7.4.6-10.8.8 1.9 2.8 1.9 2.8 16.3 3-7.1 4.5-13.9 3.3-20.8.1-.6 2-1.1 3.7-1.8 6-2.1-1.1-3.8-2.1-6.1-3.3-8.6 11.7-19.3 13.5-31.9 5.4-2.3 3-4.4 5.8-6.8 9-.4-2.6-.8-4.9-1.2-7.3-2.7 2.4-5.3 4.9-8.1 7.2-.9.8-2.2 1.4-3.4 1.5-1.7.2-3.5-.1-5.2-.1.2-1.6.4-3.2.7-4.7.2-.9.6-1.8 1-2.9-1.9-.2-3.5-.4-6.6-.7 2.3-3.8 4.1-6.8 5.5-9.2-2.3.2-5.9.4-9.5.7 0-.2-.1-.4-.1-.6 3.2-1.2 6.4-2.4 9.7-3.6 0-.3-.1-.6-.1-.9-1.8 0-3.8-.3-5.5.1-8.8 1.9-16.5-.6-23.8-5.3-1-.7-2.9-.9-4-.5-8.9 3.4-16.2-.5-17.5-9.9-1.2-6.6-2-12.8-5.1-18.8-1.3-2.5-1.2-6.6-.2-9.4 2.7-7.5 1.8-14.4-1.9-21.1v-4.3c1.1-2.3 2.3-4.6 3.4-6.9-1.5 3.6-2.5 7.2-.8 11 2.4 5.4 3.1 11.1 2.6 17-.2 1.8.5 3.8 1 6.5 1.1-1.4 1.5-2 2.1-2.8.6 1 1.1 1.8 1.6 2.6.7-1.6 1.3-3 1.9-4.6.9.6 1.5 1.1 2.1 1.5.6-1.1 1.1-2.2 1.8-3.6.7.8 1.3 1.4 1.8 1.9.6-1.4 1.2-2.9 1.9-4.7l3.6 7.2c.4-.1.8-.3 1.2-.4v-7.8c2.5-1 4.3-1.2 5.6-2.2 8.2-6.3 6.9-15.5 7.8-25.3-5.4 8.8-10.1 16.4-14.8 24.1-.2-.1-.4-.2-.7-.3.2-1.8.3-3.6.5-5.4l-.8-.8c-4 4-8 8.1-12.2 12.3-2.4-10.3-8.3-20.8-.8-32-1.3 1.1-2.6 2.2-3.8 3.2 3.6-5 5.1-9.7.7-15.4-2.1-2.7-.4-5.9 2.6-7.9 6.7-4.5 6.7-4.5 2.8-11.7-.5-1-1.2-2.1-1.3-3.1-.2-3.7-1.6-8.5.2-10.8 2.6-3.4 2.7-6.5 2.8-10.1.1-3.7-.5-7.5.2-11 .8-4.2 2-8.6 4.3-12 2.6-3.9 5.9-3.3 8.8.5.3 1 .7 1.9 1 2.9-1 .2-2.1.8-3.1.6-2-.3-4-1-6.2-1.6-1.9 6.2-1.2 11.9 3.1 16.1 7 6.9 14.6 13 22.6 20.1-.4-7.1-2.5-12-8-14.8-5.2-2.6-6.1-7.2-5.9-12.2.1-1.6 1-4.3 2.1-4.6 1.5-.4 3.7.7 5.1 1.7 1.8 1.4 3.1 3.5 4.6 5.3-1-4.8-.1-10.5-6.8-12.1 4.5-2.7 8.8-5.3 13.1-7.8l-.3-1.8c-1.8-.2-4-1.1-5.5-.4-5.4 2.6-10.6 5.7-15.8 8.6 1.9-6.1 7.4-7.4 12.4-9 3.8-1.2 7.9-1.6 11.9-2.4-1.5-4.4-3.6-8.3-4.1-12.5-.5-4.2.5-8.6.8-12.8-5.8-1.1-5.9-1.4-4.2-6.1.2-.5.5-1.1.3-1.5-2.4-4.4.6-7.2 2.3-9.4-2.9-4-6.2-7.3-8.2-11.3-2.3-4.4-.3-7.6 4.6-8.8 1.9-.5 3.9-.8 5.9-1.2-.1-.5-.3-.9-.4-1.4-3.7 1.1-7.8 1.6-10.9 3.6-4 2.6-1.9 6.9-.8 10.6-2.8-4-4.3-8.2-1.6-12.7 2.4-4 6.4-5 10.7-4.8 4.6.2 9.2.8 13.7 1.2 0-9.6.5-19.4-.1-29.1-.6-9.8-3.6-19.1-11.2-26.2 7.3-9.9 17-16.7 28.9-20.4C80.3 2.5 85.5 1.6 90.6.5h13.6c5.7 1.1 11.4 2 16.9 3.4 7.6 1.9 14.5 5.5 20.5 10.6 1.9 1.6 2.2 3 1.3 5.4-5 13.4-7.6 27.2-4.6 41.5.8 3.6 2.3 7.1 3.4 10.3 5.1-1.2 9.4-2.2 13.8-3.2-6.9 3.2-13.6 6.6-20.6 9.6-19.2 8.2-39.1 11.4-59.8 8.3-7.5-1.1-14.8-3.6-22.2-5.4-4.9-1.2-10-2.2-14.3.2 4.1.5 8.8.5 13.2 1.6 18.3 4.4 36.5 8.3 55.4 4.5 17.6-3.5 35.4-6.7 50-18.4 2 .3 5 0 5.6 1.1.8 1.3 0 4-.7 5.8-.8 2-2.3 3.8-4 6.6 1.8-1.3 2.7-1.9 3.7-2.6 1.7 3.8 4.6 4.8 7.4 2.6 5.9 4.8 7.3 10.6-1.6 19.4 3.7 5 3.2 10.3-1.7 15.5-1.7 1.8-3.3 4.9-7 2.3 1.9-1.6 3.8-2.9 5.3-4.4 2.5-2.5 4.4-5.9 2.8-9.2-1.9-3.8-.7-6 2.1-8.2.5-.4.9-1.1 1.3-1.9-6.6 4.4-11.3.5-16.6-3 .6 1.2 1.2 2.3 2.3 4.2-2.2-1.6-3.7-2.7-5.3-3.8-.3.3-.5.6-.8.9 2.9 2.2 5.8 4.3 9.1 6.8-2.1-.3-3.8-.6-6-.9.6.9 1.1 1.6 2 2.8-1.8-.4-3.2-.6-4-.8 0 2.2-.3 4.4.1 6.5.2 1 2.7 2.6 3 2.3 2.3-1.6 4.3-3.6 6.4-5.5.1.7.2 2.2.5 4.7 1-2.6 1.7-4.4 2.5-6.5 1.9 2.9 1.4 5.6-.5 8-2.9 3.7-6.5 2-10.9.2.9 2.1 1.1 3.9 2.1 4.7 10.2 8 15.8 19 20.9 30.5.3.7.9 1.4 1.9 1.9-.4-1.7-.8-3.4-1-4.3 3.3.4 6.8.5 10 1.4 9.7 2.6 20.2 2.3 29.3 7.8 2.4 1.5 5.6 2.3 8.4 2.3 6.8 0 11.1 3.2 14.5 8.7 3.1 5 6.4 9.9 10 14.6 5.7 7.3 6.1 15.3 4.2 23.7 5.4 3.3 6.9 6.2 5 12.3-3.5 11.4-9.4 21.5-19.6 28.7.7-1.2 1.4-2.3 2.1-3.5.8-1.3 1.6-2.5 2-4.1l-9 7.8c-.2-.2-.5-.4-.7-.6 2.6-3 5.1-6.1 7.7-9.1-.2-.2-.4-.4-.6-.5-2.8 2-5.5 4-8.3 6 7.8-10.5 20-18 20.7-32.7-5.6 11.8-13.3 21.8-23.5 29.8-.5-.1-.9-.2-1.4-.3.2-3.5-.4-7.4.8-10.5 2.4-6.4 5.5-12.7 8.8-18.7 6.2-11.4 6.5-23 1.6-34.7-1.2-2.9-3.4-5.5-5.5-7.9-1-1.2-3.1-2.7-4.3-2.4-5 1.4-7.4-2.9-11-4.3-4.3-1.6-8.8-3-13.4-3.3-4.1-.2-7.8-.5-11.3-2.7-1.7-1.1-3.8-1.4-6.5-2.3 1.4 5.9-2.3 7.3-6.9 8.7 2.2 2 3.7 3.6 5.5 4.9 6.4 4.5 7.2 7.1 4.1 14.3-.6 1.3-1 2.6-1.6 3.8 4.1 1.8 9.4 1.2 12-1.6 2.8-3 1.7-6.3.5-9.5-.7-1.7-1.1-3.4-.8-5.5 2.4 4.9 4.8 9.8 7.2 14.9 5-.7 10.6 5.4 9.5 12.9-2.4 15.9-4.7 31.9-12.2 46.5l.1.1c0-1.3-.3-2.5-.1-3.8.8-5.9 1.5-11.8 2.8-17.6 1.2-5.5 2.8-10.9 4.8-16.1 2.3-5.7 2.6-11.3.7-17-.5-1.5-1.5-2.9-1.8-3.6-5.7 2.1-10.7 4.2-15.9 5.7-6.9 2.1-13.6.6-19.5-3.3-3.1-2.1-4.7-.9-5.9 1.9-1.8 4.4-1.9 9 .6 13.1 4.6 7.6 5.6 15.6 3.7 25.2-1.9-3.8-3.5-6.8-5.1-9.9-.3 0-.6.1-.9.1 1.1 22.4 1.9 44.8 3.6 67.1.9 12.5 3.9 16.4 14.1 23.8-1.9.6-3.6 1.1-4.9 1.5 1.3 4 2.7 8 4 12l-1.2.6c-1.4-.8-2.9-1.6-4.3-2.3l-4.5 6c-.5-.1-.9-.3-1.4-.4 3.2-8-.6-14.6-3.5-21.5-4.1-9.5-6.9-19.4-6.7-30 .5-24.8.6-49.6.9-74.4v-7c-10.7 5.8-20.3 3.7-30.2-1.5 1.7 2.1 3.3 4.2 5.1 6.4-.9.2-1.9.3-3.2.5.3.9.5 1.8.9 3.3-1.2-1.1-1.9-1.8-2.7-2.5l-1.2.3c.5 4 1.1 7.9 1.6 11.9-.3.1-.5.1-.8.2-.6-3.3-1.6-6.5-1.8-9.8-.2-3.1.7-6.2.5-9.3-.3-3.7-1.3-7.3-2-11.3 0 0 .8-.2 2.4-.5-1.7-2.4-3.2-4.5-4.8-6.8h2.4c-1.9-2.7-3.7-5.1-5.5-7.6.3-.3.6-.6.9-1 2.8 2.3 5.7 4.5 8.3 6.7 11.2-5.9 16.7-17.7 24.2-28.3-1.7-1.1-4.2-3.1-7-4.5-.8-.4-3.3.6-3.7 1.6-1.9 4.5-3.3 9.3-4.1 14.5 1.2-1.1 2.5-2.3 3.7-3.4-2.6 5.1-4 11.2-10.3 13.2 3-8.3 6.2-16.4 8.8-24.7.8-2.6-.2-5.7-.4-8.6-.7-.1-1.5-.2-2.2-.3-2.4 6.3-4.7 12.6-7.1 19-1.7-2.4-3.3-4.8-5-7.3.2-.3.3-.5.5-.8 1.6.8 3.2 1.6 4.9 2.5.6-2.2 1.4-4.8 2.2-7.7l-4.5-.6c-.1-.4-.2-.7-.3-1.1 1.8-1 3.8-1.8 5.4-3.1 1.3-1 2.4-2.6 2.9-4.1 1.4-3.7 2.8-7.4 3.4-11.2.7-5 .6-10 .7-15.1 0-.4-.9-.9-1.5-1.2-2.5-1.6-5.9-2.4-5.5-6.4.7-.1 1.7-.2 2.8-.3-3.8-3.1-7.1-3.2-14.7-.6.6.6 1.1 1.2.8.9-6 2.4-12.3 5-18.5 7.5l.1-.1c-5.5-.4-11-1-16.5-1-4 .1-8.1 1.1-12.1 1.7 0 .5.1 1.1.1 1.6 1 .1 2.1.2 2.5.3-2.1 2.3-4.4 4.8-6.8 7.3.3.4.6.8.9 1.3 2.5-6.4 8.3-4.1 12.5-4.7 4.3-.6 9.1 1.9 14.3 3.2.4-.6 1.4-1.7 1.8-2.3.4 7.9.8 16.3 1.2 26-2.1-4.5-3.7-8-5.4-11.5-.7-1.4-1.8-2.6-2.4-4-.3-.7 0-1.6.1-2.4-2-1.1-4.1-2.2-6.3-3.3-3.6 4.3-5.1 4.5-8.6.6-1.2.9-2.4 1.8-3.9 2.9 4.2 4.2 8.3.9 12.2.7.1.4.2.8.3 1.3-3.3.7-6.6 1.4-9.7 2.2 1.1 2.9 1.2 2.9 7.2 3.3-5.7 3-9.7.8-11.2-6.6-.8 1.5-1.4 2.6-2 3.7-.9-.7-1.8-1.3-2.6-2 .5-.4 1.1-.8 1.9-1.4-5.4-2.5-2.8-5.5-.7-8.5-1.1-2-2.2-3.8-3.6-6.4-.6 3.3-1.1 5.8-1.5 8.1.6-.3 1.3-.6 2-.9.2.2.3.4.5.5-1.7 2.2-3.3 4.4-4.9 6.6 3 .1 3.7 2.1 2.6 7.4.8.2 1.6.3 2.4.5-.3 1.4-.6 2.8-.9 4.3l.6.3c1.1-1.2 2.2-2.5 3.2-3.7.1.1.3.1.4.2-.7 1.5-1.6 3-2 4.6-.4 1.3-.6 2.8-.3 4.1.7 3 2.5 4.4 5.8 3.4 1.6-.5 3.3-.6 5.1-.4-1.1 4.3-4.6 4.3-7.1 4.9-2.7 8 2.8 11.8 8.5 16.8-1.6-6.8-3.6-12.9 2-18.2-.3 2.4-.6 4.4-1 7.2 1-1.1 1.6-1.7 2.5-2.7v5.5c1.1-1.2 1.7-1.9 2.3-2.6 1.9 7.4-3.1 16.5 6.9 21.4.5-1.6.9-3 1.6-5 .9 2.4 1.6 4 2.2 5.7 1.7-2.9 3.3-5.5 4.9-8.2-1.4-.9-2.7-1.7-3.3-2 5.5-.7 11.5-1.4 17.4-2.2-.3.4-.7 1.2-1.3 2.1.9.4 1.8.8 2.5 1.2-.1 1.6-3.3 3.6-4.9 3.2-.3-.1-.5-.2-.8-.1-4.9 1-8.4 8.2-6.4 13.8 6.4-2.9 12.3-1 17 3.6 1.6 1.6 1.4 5 2 7.6-.4.1-.8.2-1.2.2-.2-1.1-.4-2.3-.6-3.5-1 2.7-1.9 5.2-2.7 7.3.7 1.7 1.7 3.4 2 5.2.3 2.1-.1 4.2 0 6.4.1 6.5 3.1 9.2 9.4 9.4-1.9 0-4 .6-5.7-.1-3.5-1.4-5.1-6-5.5-14.7-4.6 4.4-6.9 9-7.7 15-.4 2.8-3.4 5.3-5.3 8.1 4.4 3.1 2.8 8.2 1.6 12.8-2.6 10.2-2.1 20.2.8 30.2.2.7.6 1.2.9 1.8l-.3-.2zm47.9-179.9c-4.7-4.4-6.8 1.3-10.6 2.2 2.9 3.3 5.3 3 7.9.5.9-.9 1.9-1.8 2.9-2.7.2 1.8.3 3.5.6 6.1 1-1.9 1.7-3.2 2.5-4.7 3.1 4.5.1 6.6-3.1 8.9 5-.8 7.6-3.8 6.9-7.8-1-4.7-4.6-2.4-7.1-2.5zM67.7 19.2c.2.1.3.3.5.4-1 1.8-2 3.6-3.3 5.9 1.7-.7 2.8-1.2 3.9-1.7.1.2.3.4.4.6-1.4 1.8-2.9 3.5-4.9 6 2.3-1.1 3.8-1.8 6.2-2.9-1.6 2.3-2.6 3.7-3.8 5.4 1.8-.3 3.3-.5 5.6-.8-2.2 1.9-3.8 3.3-5.3 4.7.1.1.2.3.4.4 1.6-.5 3.1-1.1 4.7-1.6.1.2.2.4.2.6-1.8 1.5-3.7 3-6.3 5.1 3.4-.6 5.7-1.1 8-1.5.1.3.1.7.2 1-2.1 1.1-4.2 2.2-7.1 3.7 3.6-.7 6.3-1.1 8.9-1.6.1.4.2.8.4 1.1-.7.4-1.4.8-2.6 1.4 2.2.2 3.5.4 5 .5-.7.9-1 1.3-1.3 1.8.1.1.2.1.1 0 18.8-3.1 37.4-8.1 55.8-2.2 2.5-9.4 5-18.8 7.6-28.6.3.3.1 0-.3-.3C119.5 2.1 97.1-1.2 73 7.6c-5.2 1.9-9.1 4.5-10.1 10.2 1.3-.8 2.6-1.7 3.8-2.6.2.2.4.5.6.7-1.2 1.8-2.3 3.6-3.7 5.9 1.7-1 2.9-1.8 4.1-2.6zm28.6 230c-.8.2-1.5.4-2.3.6-1.1-3.6-2.3-7.2-3.5-11.1-1.8 4-3.4 7.6-5.1 11.1-.1-4.8 3.8-8.8 1.7-13.7-3.2 8.1-6.4 16.2-9.4 23.7-.2 0 .6-.2 1.5-.4.1.3.3.5.4.8-3.8 2.8-7.5 5.7-11.3 8.5 5.6-9 4.8-17.1-.9-25.7-3.2-4.8-5.1-10.7-6.6-16.3-1.2-4.5-1.1-9.4-1.5-13.9-8.3 7.7-12.8 17.5-14.9 28.7-1.6 8.8-1.1 17.3 3.5 25.1 1.8 3 4.4 6.1 7.4 7.8 2.2 1.2 5.7.2 9 .2-.8 1.8-1.7 4-2.7 6.3 2.7 1.1 5.6 1.9 8.2 3.2 5.1 2.5 11.5-.2 13.4-5.6-2.9 1.3-6.1 2.7-9.2 4.1-.2-.3-.3-.6-.5-1 4-2.6 8.8-4.3 9.5-9.9-1.3-.6-2.3-1.1-3.9-1.8 1.5-2.2 2.7-4.1 4.3-6.6-2.2 1.3-3.7 2.2-6.2 3.6 5.5-8.9 13.6-11.3 21.8-13.4.4-8.9-3.4-18.4-7.6-20.3 1.5 5.3 3.2 10.7 4.9 16zm-8.7-61.5c4.4.8 8.2.2 8.5-3.6.3-4.5-.7-9.2-5.4-12.2 2.2.5 4.8 1 5.6 2.5 2.6 5.1 3.4 10.5-1.4 15.8 8 1.6 15.2 3 22.9 4.6 0 0 .3.9.8 2.2 1-1.3 1.6-2.2 2.4-3.2.9 1.3 1.7 2.4 2.5 3.6.4-.2.8-.4 1.2-.5-.7-1.5-.9-3.6-2-4.3-3.5-2.3-7.3-4.1-10.9-6.2-1.1-.6-2.5-1.4-2.9-2.5-2.9-7.5-8.8-11.9-15.7-14.9-2-.9-5.6-.6-7.4.7-4.9 3.4-7.4 8.8-9.1 14.4-1 3.2.8 6.6 3.2 7.2 1.7.4 3.4 1.1 5 1.7-1.2 1.1-2.4 1.5-3.6 1.7-1.3.2-2.7.3-4.1.4-.1 1.4-.2 2.2-.2 3 .2 5.4 1.1 5.7 6.3 5.2 4.4-.4 8.9 0 13.3.4 5.6.5 11.1 1.6 16.7 1.9 3.3.2 5.4-1.9 6-5.3-8.5-2.5-16.7-4.8-25.6-3.9-5.3.6-5.4 0-5.9-6.1 1.3.7 2.6 1.5 3.8 2.2.2-.3.4-.5.6-.8-1.1-1-2.4-2.1-4.6-4zm-16.1 13.7c-.4-.1-.8-.3-1.3-.4-2.5 6.2-6.5 12.3-7.1 18.7-.7 9.3 2.3 18.4 8.2 26.2 2.3 3.1 4 6.6 6.3 10.6 1.9-4.4 3.9-9 5.8-13.6-.3-.1-.7-.3-1-.4-.9.5-1.9 1-3.6 1.9 1.6-3.3 2.6-5.7 3.9-8.1.8-1.4 1.6-3 2.8-4 4.6-3.7 9.5-7.2 14.7-11-2.7-.9-4.8-1.6-7.4-2.4.9 1.2 1.5 1.9 2.7 3.5-4.6-1.5-8.2-2.7-12.2-3.9 2.1 2.4 3.9 4.5 5.7 6.5-10.5-3-18.1-10.9-17.5-23.6zm-56.9-4.7c-.5.5-1 .9-1.4 1.4 4.2 4.6 8.4 9.1 12.5 13.5.2 0-.5 0-.9.3-2 1.4-5.3 2.8-5.4 4.4-.2 2.1 1.7 4.9 3.5 6.5 2.8 2.6 6.2 4.4 9.6 6.7 2.2-5.4-1.2-8.9-3.9-12.4 3.9 0 7.6-.5 11.2.1 6.1 1 7.4 5.5 3.6 10.1-2.5-2.2-4.9-4.5-7.4-6.8.1 4.9 1.8 9.3-2.6 12.8-2.2-.8-4.3-1.6-6.7-2.4.8 6.3-2.6 11.5-9 14.5.2-1.5.4-3 .5-4.5-.3-.2-.7-.4-1-.5-1 1.2-2 2.4-2.9 3.6-2 2.8-2.6 5.8-.3 8.6 2.4 2.9 5.5 2.1 8.1.5 2.3-1.4 4.6-3 6.2-5.1 2.7-3.8 4.5-8.4 7.4-11.9 3-3.7 7.3-6.2 10.5-9.8 3.6-4.1 2.6-8.5-2.1-11.5-1.9-1.2-4.2-1.8-6-3.1-4.5-3.3-9-6.7-13.3-10.2-1.3-1.1-2.3-2.6-3.4-4-.2.1-.3.2-.5.3.5 1.1 1.1 2.3 2 4.2-3.4-2.1-5.9-3.7-8.3-5.3zM123 56.9c2.9-.7 5.2-1.4 7.6-1.7 4-.4 4.4-3.1 3.2-5.6-.6-1.5-3.1-2.7-4.9-2.9-5.9-.7-11.9-1.1-17.8-1.2-3.1-.1-6.3.5-9.8.7 4.9 7.9 5.4 8.3 13.1 9.1 2.2.2 4.3.5 6.9.9-1.1 1.5-2 2.6-2.8 3.7-6.5 8.1-6.6 8.2-1 17.2.8 1.4 2.9 3.4 3.6 3.1 3.2-1.1 7.6 0 9.1-4.6 3.1-10 2.3-12.3-7.2-18.7zm-44.1 5.9c3.5 2.1 6.1 4.1 9 5.4 2.7 1.3 3.3 2.9 2.7 5.7-.6 2.6-.7 5.3-1.2 9.2 3.6-3 6.4-5 8.8-7.3 1.8-1.7 3.4-1.8 5.6-.8 4.3 2 8.7 3.6 14 5.8-2.3-3.8-3.8-6.7-5.7-9.3-2.2-2.8-1.7-4.9.5-7.3 1.9-2.1 3.5-4.6 5.4-7.2-4.4-.4-8.8.4-12-1.3-3.3-1.7-5.5-5.6-8.2-8.6-.5 0-1 .1-1.5.1.3 11.9-8.1 13.8-17.4 15.6zm8.2 21.1c.4-2.6.5-5.1 1.3-7.3 1.2-3.7 0-5.7-3.3-7.4-3.2-1.7-6-3.9-9.2-6 6.7-4.7 17.7-3.9 17.6-16.1-8.1 2.3-16 4.6-23.9 6.9.4.3.8.6 1.2 1-.4 1.8-.9 3.7-1.3 5.5 1.5.6 2.8 1.3 4.3 1.9-1.1 4.3-1.7 8.2 3.8 10.4-1.1.8-1.7 1.2-2.3 1.6-1.8 1.4-5 2-3.6 5.2 1.3 3 3.5 5 7.3 4.6 2.4-.5 4.9-.3 8.1-.3zm56.1 100.9c4.4 2.1 8.4 4.1 12.6 5.7.8.3 2.4-.3 3.2-1 .6-.6.6-2 .6-3-.1-1.7-1.4-4.2-.7-5.1 3.2-3.6 3-7.6 2.6-11.9-.2-1.5.8-3.2 1.3-4.8.4-1.4.9-2.8 1.9-5.7-6.6 2.5-11.4-3.3-18.4-1.1 4 1.6 6.8 2.7 10.3 4.1-5.2 2.8-9.8-3.7-14.8 1.8 3.7.9 6.5 1.4 9.2 2.4 1.4.5 3.3 2.4 3.1 3.3-.2 1.4-1.9 3.5-3.2 3.7-2.2.4-4.7-.2-6.9-.8-2.2-.6-4.4-1.6-6.5-2.5.9 2.9 2.5 5 3.9 7.2 1 2.3 5.2 3.3 1.8 7.7zm-90.6-60.9c-.3-.4-.6-.7-1-1.1 4-3.9 7.9-7.8 11.9-11.7-.3-.3-.6-.6-1-.9-1.1.9-2.1 1.8-3.2 2.7.3-1.7.9-3.1 1.8-4.3.9-1.3 1.9-2.5 2.9-3.7-.3-.3-.5-.6-.8-.9-1.7 1.2-3.6 2.2-5.2 3.5-1.9 1.6-3.2 3.8-5.3 5.1-4.4 2.6-5.9 9.4-3.5 12.4-1 3.9-2.7 7.2-2.3 10.2.5 3.6 2.6 7.1 4.7 10.2 1.5 2.3 4 1.7 5.8-.3 1.7-1.9 3.2-3.8 5-6-4.4-7.3-5.6-.9-7.3 2-.6-.8-1-1.3-1.8-2.4-.3 2.2-.5 3.7-.8 6.2-2.4-5.2-1.3-9.1.8-13 1.9-3.6 3.4-7.3 5.4-12-2.4 1.7-4.3 2.8-6.1 4zM105 219c2.8-1.1 5.7-2 8.3-3.5.8-.5 1.1-2.4 1-3.7 0-.4-1.7-.9-2.7-1.2-5.2-1.3-10.3-2.7-15.6-3.7-3.9-.7-8-1.1-12-1.1-1 0-2.6 1.5-2.8 2.6-.2 1 .9 2.8 1.9 3.2 6.9 3.2 13.5 7.3 21.9 7.4zm17.1-27.9c4.4-7 3.8-11-1.1-13.9-3.8-2.3-8.2-1-10.2 2.4.8 1.6 1.2 2.6 1.7 3.6.8-.7 1.6-1.3 1.8-1.5 2.6 3.2 5 6.1 7.8 9.4zM68.1 83c-4.6-5.8-4.5-7 .4-12.5 1.3-1.4 2.2-3.1 3.1-4.5-3.7-.8-6.8-1.5-9.9-2.2-.3 3.6-.6 7.6-.9 11.5-.3 4 2.4 7.1 7.3 7.7zm0 52.3c2.2-4.2 1.4-9.7-2.2-13.1-1.1-1-3.7-2.2-4-2-1.3 1.5-2.5 3.4-2.8 5.3-.1 1.4 1.1 3.2 2.2 4.3 2.1 1.9 4.4 3.5 6.8 5.5zm-23.3-22c1.5-.7 2.8-1.6 4.1-1.9 4-.9 6.6-2.9 8-7.1.8-2.3 3.5-4 6-6.7-.1 2.3-.2 3.2-.2 4.1.3.1.5.2.8.4 1.5-1.8 3-3.6 5.1-6.1-10.7.1-13.4 9.7-20.1 13.9-2.2-4.7 2.2-6.1 3.7-9.2-6.6 4-8.8 7.7-7.4 12.6zm89.3-57.8c-2.2.5-4.6 1.1-7.3 1.7 6.3 5.1 8.9 11 6.8 19 2.1-1 3.8-1.8 5.4-2.5-1.6-6.2-3.1-11.9-4.9-18.2zm-20.5 26.4c-12.4-6.2-15.3-5.9-21.4 1.8 7.3-.6 14.3-1.2 21.4-1.8zm-40.5 77.4c4.7 2 9 3.7 14.3 5.9-4.7-4.8-8.7-8.9-13.2-13.5-.5 3.3-.8 5.9-1.1 7.6zm3.4 19.3c2.3-3.9 4.4-7.5 6.5-11.1-.2-.4-.5-.7-.7-1.1-1.9 1.3-4.2 2.2-5.5 3.8-2 2.4-2.5 5.3-.3 8.4zm36.6-15.7c-.3-.2-.6-.5-.9-.7-1.9.9-4.7 1.4-5.6 2.9-1.4 2.2-2 5.3-2.2 8-.1 1 2 2.2 3.1 3.3.5-.2 1-.3 1.4-.5-3-5.8-2-10.2 4.2-13zm34.7-51.9c.2 2.9.8 5.9.6 8.8-.2 2.8-1.1 5.6-1.7 8.4 3.2-5.6 4.1-11.4 1.1-17.2zm1.1 44.1c3.1.8 5.4 1.3 8.1 2-1.6-2.2-2.8-3.8-4.2-5.7-1.3 1.2-2.4 2.3-3.9 3.7z"/><path stroke="#231F20" stroke-miterlimit="10" d="M220 197.5c.8 4.7 1.7 9.3 2.5 13.7 8.4-13 8.7-27.9 7.4-43 .5-.1 1.1-.2 1.6-.3 1.1 3.2 2.5 6.2 3.1 9.5 3.1 15.1.5 29-9 41.3-3.5 4.6-4.4 9.7-3.9 15.2.4 4.8.6 9.6 1 14.4.1 1.4.4 2.8.9 4.1 4.2 11.2 4.6 17.7 1.3 30.6-1.7-4.4-3-7.7-4.2-11-6.7 7.9-6.7 7.9-10.8 7.7 1.1-7.5 9.6-13.7 4.3-23.1-2.1 3.7-3.8 6.9-5.5 10-.9-6.9-.4-13.2 1.8-19.6 2.3-6.6 2.7-13.8 4.7-20.6 2.8-9.4 6.1-18.6 2.9-28.6.6-.2 1.3-.2 1.9-.3zM203.3 239.2c1.1 14.5-3.7 27.9-7.3 41.5-.9 3.3-1.5 6.9.9 10.1 1.3-1 2.4-1.8 3.5-2.7l.6.6c1.3-3.8 2.6-7.7 4-11.5-.2 9.5-3.6 20.6-5.8 19.6-.5 1.2-1 2.5-1.7 4.3l-1.7-3.4c-.5 1.2-1 2.3-1.7 3.8-.7-1.6-1.2-2.8-1.7-4.1h-1.2V314.6c-4.3-4.3-4.7-8.7-5-12.9-.6-8.2.9-15.9 3.9-23.6 3.9-10.1 7.6-20.4 10.6-30.8 1.1-3.8.2-8.2.2-12.8.9 1.7 1.7 3.1 2.6 4.6-.1.2-.2.1-.2.1zM203.5 207.6c-2.2-9.1-3.7-11.5-8.3-10.8-5.8.9-2.2 5.7-3.3 8.9-.8-.6-1.8-1.1-2.5-1.8-3.1-3.3-6.6-4.2-11.1-3.4-6 1.2-10.8-5.2-8.3-10.8.4-.9 2.6-1.9 3.3-1.6 8.7 4.2 17.4 2.4 26.1.2 2.5-.6 5.3-.2 8-.3 0 2.8.5 5.8-.1 8.5-.8 3.8-2.5 7.4-3.8 11.1zM108.5 98.4c.9 2.7 1.7 5.5 2.8 8.9 5-2.3 10.1-6.1 16.7-6.2-.5-.9-1-1.6-1.5-2.6 2.2.5 4.1 1 6 1.5.1-.5.3-.9.4-1.4 1.3 1.2 2.6 2.4 4.6 4.3-.6-1.9-1-3-1.4-4.1 4.9 2.5 5.6 4.3 2.8 9-1.6 2.8-3.6 5.4-5.3 8-.3-.2-.7-.4-1-.7 1-2 2-4 3.3-6.8-2.1.8-3.3 1.3-5.3 2.2 2.2-2.8 2.7-4.8-1-5.3-3.3 4.6-4.6 4.7-9.1 1.2.2 1.2.3 2.4.5 3.9-.2.1-1.2.3-2.2.6.6 4.4 3.2 5.5 7.2 4.8-3.2 2.7-3.9 2.4-9.9-3.4-.4 5.1-.7 9.6-1.2 15.2-2.4-9.8-4.5-18.6-6.6-27.4-.1-.6.2-1.2.2-1.7.1-.1 0 0 0 0z"/><path fill="#FFF" stroke="#231F20" stroke-miterlimit="10" d="M157.2 68.9c-14.6 11.7-32.3 14.9-50 18.4-18.9 3.7-37.2-.2-55.4-4.5-4.4-1.1-9.1-1.1-13.2-1.6 4.4-2.4 9.4-1.3 14.3-.2 7.4 1.7 14.7 4.3 22.2 5.4 20.7 3.1 40.7 0 59.8-8.3 7-3 13.7-6.4 20.6-9.6.6.2 1.1.3 1.7.4z"/><path stroke="#231F20" stroke-miterlimit="10" d="M123.7 231c.2-2.9.4-5.8.6-9.1 1.4 2.6 2.6 5 4.2 8 1.5-7.1-5-10.8-5.7-17 1.4.9 2.3 1.5 3.6 2.3-1.1-2.7-2.1-4.9-3-7.1l1.5-.6c1.3 3.7 2.6 7.4 3.8 11.2 1.4 4.2 2.5 8.6 8.1 9.6-1.2.3-2.5.6-2.8.7-1.5 2.9-2.7 5.1-3.8 7.1-3.1-1.6-5.6-2.9-8.1-4.1.7-.3 1.1-.6 1.6-1zM246 253.8c3.4-9.2 6.8-18.4 10.2-27.7.5.1.9.3 1.4.4 4.6 11-.5 20.4-5.4 29.8l4.2-17.4c-.4-.2-.7-.3-1.1-.5-2.9 5.3-5.9 10.6-8.8 15.9-.3-.1-.4-.3-.5-.5zM115.5 265.6c-.1-1-.2-2.1-.3-3 3.6 2.2 6.8 4.2 10.2 6.2 6.5 3.7 9.6 8.2 10.2 15.5-7-6.5-13.6-12.7-20.2-18.9l.1.2zM120.8 132.3c-.6 1.2-1.1 2.3-1.7 3.5-1 1.8-2.2 3.6-2.9 5.5-1.2 3.4-3.4 4.8-6.5 3-3.9-2.3-7.5-5.2-10.8-8.4 3.6-.8 6.7-1.5 9.3 1.7 3.2 3.9 5.9 3.5 8.6-.9 1-1.6 1.9-3.3 2.8-5l1.2.6zM154.9 272.8c-4.4 8.4-8.8 16.8-13.3 25.2-.5-.2-1-.5-1.4-.7 4.4-8.4 8.8-16.8 13.2-25.3.5.2 1 .5 1.5.8zM95.8 152.6c8.1-.6 16.2-1.2 24-1.8-4.3 3.1-9.3 4.1-15 2.3-1.6-.5-3.8.5-5.7.8-1.1.2-2.1.3-3.2.5 0-.6-.1-1.2-.1-1.8zM187.4 212.8c5.3-.4 10.5-.9 15.8-1 .7 0 1.5 1.8 2.2 2.6h-18.1c0-.4 0-1 .1-1.6zM148.1 300.1c2.1-7.2 4.1-14.4 6.2-21.6.4.1.7.2 1.1.3-2 7.3-4 14.5-6 21.8-.4-.2-.8-.4-1.3-.5z"/><path fill="#FFF" stroke="#231F20" stroke-miterlimit="10" d="M67.7 19.2c-1.2.8-2.4 1.6-4 2.6 1.4-2.2 2.6-4 3.7-5.9-.2-.2-.4-.5-.6-.7-1.3.9-2.6 1.7-3.8 2.6 1-5.7 5-8.3 10.1-10.2 24.1-8.8 46.5-5.6 67.4 9 .3.2.6.6.3.3-2.6 9.9-5.1 19.2-7.6 28.6-18.4-5.9-37-1-55.8 2.2.1.1 0 0-.1 0 .3-.5.7-.9 1.3-1.8-1.5-.2-2.7-.3-5-.5 1.2-.7 1.9-1 2.6-1.4-.1-.4-.2-.8-.4-1.1-2.6.5-5.2 1-8.9 1.6 3-1.5 5-2.6 7.1-3.7-.1-.3-.1-.7-.2-1-2.3.4-4.5.8-8 1.5 2.6-2.1 4.5-3.6 6.3-5.1-.1-.2-.2-.4-.2-.6-1.6.5-3.1 1.1-4.7 1.6-.1-.1-.2-.3-.4-.4 1.6-1.4 3.1-2.7 5.3-4.7-2.3.3-3.7.6-5.6.8 1.2-1.7 2.2-3.1 3.8-5.4-2.4 1.1-3.8 1.8-6.2 2.9 2.1-2.5 3.5-4.3 4.9-6-.1-.2-.3-.4-.4-.6-1.1.5-2.2.9-3.9 1.7 1.3-2.2 2.3-4 3.3-5.9 0-.2-.2-.3-.3-.4z"/><path fill="#FF0019" stroke="#231F20" stroke-width="3" stroke-miterlimit="10" d="M125.9 43.3s5.2-31.7 8.2-30.2c2.9 1.5 6 1.4 6 4.1 0 2.6-6.9 26-7.5 27.6-1.3 0-6.7-1.5-6.7-1.5z"/><path fill="#FFF" stroke="#231F20" stroke-miterlimit="10" d="M96.3 249.2c-1.7-5.4-3.4-10.7-5.1-15.8 4.3 1.9 8 11.4 7.6 20.3-8.2 2.1-16.3 4.5-21.8 13.4 2.4-1.4 4-2.3 6.2-3.6-1.6 2.5-2.9 4.4-4.3 6.6 1.6.7 2.7 1.2 3.9 1.8-.7 5.6-5.6 7.3-9.5 9.9.2.3.3.6.5 1 3.2-1.4 6.3-2.8 9.2-4.1-1.8 5.3-8.2 8-13.4 5.6-2.6-1.3-5.5-2.1-8.2-3.2 1-2.3 2-4.5 2.7-6.3-3.3 0-6.8 1-9-.2-3-1.7-5.6-4.8-7.4-7.8-4.7-7.8-5.2-16.3-3.5-25.1 2.1-11.2 6.6-21.1 14.9-28.7.4 4.6.3 9.4 1.5 13.9 1.5 5.7 3.4 11.6 6.6 16.3 5.8 8.6 6.5 16.6.9 25.7 3.8-2.8 7.5-5.7 11.3-8.5-.1-.3-.3-.5-.4-.8-.8.2-1.6.4-1.5.4 3-7.5 6.2-15.6 9.4-23.7 2.1 4.9-1.7 8.9-1.7 13.7 1.6-3.6 3.2-7.1 5.1-11.1 1.2 3.9 2.4 7.5 3.5 11.1 1-.4 1.8-.6 2.5-.8zm-27.1 3.2c-.3.2-.6.4-.9.5-.1 1.5-.2 2.9-.4 4.4-1.3-.4-2.7-.7-3.9-1.2-1.8-.8-3.4-1.8-5.9-3.1 1.6 2.7 2.4 4.8 3.7 6.4 1.1 1.3 3.3 3.2 4.1 2.8 1.7-.8 3.3-2.7 3.9-4.4.6-1.6-.3-3.6-.6-5.4zM87.6 187.7c2.2 1.9 3.4 3 4.7 4.1-.2.3-.4.5-.6.8-1.3-.7-2.6-1.4-3.8-2.2.5 6 .5 6.6 5.9 6.1 8.9-.9 17.1 1.4 25.6 3.9-.6 3.3-2.8 5.5-6 5.3-5.6-.3-11.1-1.4-16.7-1.9-4.4-.4-9-.9-13.3-.4-5.2.5-6.1.2-6.3-5.2 0-.8.1-1.7.2-3 1.4-.1 2.7-.2 4.1-.4 1.2-.2 2.4-.5 3.6-1.7-1.7-.6-3.3-1.3-5-1.7-2.4-.6-4.2-4-3.2-7.2 1.7-5.6 4.2-11 9.1-14.4 1.8-1.3 5.4-1.5 7.4-.7 6.9 3 12.8 7.4 15.7 14.9.4 1.1 1.8 1.8 2.9 2.5 3.6 2.1 7.5 3.9 10.9 6.2 1.1.8 1.4 2.8 2 4.3-.4.2-.8.4-1.2.5-.8-1.1-1.5-2.2-2.5-3.6-.8 1-1.4 1.8-2.4 3.2-.5-1.3-.8-2.2-.8-2.2-7.7-1.5-14.8-3-22.9-4.6 4.8-5.3 4-10.7 1.4-15.8-.8-1.5-3.4-2.1-5.6-2.5 4.7 3 5.7 7.7 5.4 12.2-.3 3.7-4.2 4.3-8.6 3.5zm1.3-1.8c-1.9-4.3-3.4-7.7-4.9-11.1-3.3 1.6-4.3 4-3.5 6.9.7 2.7 6.6 5.2 10.5 4.7v-6.6c-.3 0-.6-.1-.9-.1-.3 1.7-.6 3.3-1.2 6.2zm15.2-2c-1.5-3.2-2.7-5.9-4.5-9.7v11.4c2.6-.2 4.8-.3 7.5-.5-.5-1.7-.8-3.2-1.4-5.4-.7 1.8-1.1 2.8-1.6 4.2z"/><path fill="#FFF" stroke="#231F20" stroke-miterlimit="10" d="M71.5 201.4c-.6 12.7 6.9 20.6 17.6 23.6-1.8-2.1-3.6-4.1-5.7-6.5 3.9 1.3 7.6 2.5 12.2 3.9-1.2-1.6-1.8-2.3-2.7-3.5 2.6.9 4.7 1.5 7.4 2.4-5.2 3.9-10 7.3-14.7 11-1.2 1-2 2.6-2.8 4-1.3 2.3-2.3 4.8-3.9 8.1 1.7-.9 2.6-1.4 3.6-1.9.3.1.7.3 1 .4-2 4.6-3.9 9.2-5.8 13.6-2.3-4-4-7.5-6.3-10.6-5.8-7.8-8.9-16.9-8.2-26.2.5-6.4 4.6-12.5 7.1-18.7.4.1.8.2 1.2.4zM14.6 196.7c2.4 1.6 4.9 3.1 8.1 5.2-.9-1.9-1.4-3-2-4.2.2-.1.3-.2.5-.3 1.1 1.3 2.1 2.9 3.4 4 4.3 3.5 8.8 7 13.3 10.2 1.8 1.3 4.1 1.9 6 3.1 4.7 3 5.7 7.4 2.1 11.5-3.1 3.6-7.5 6.1-10.5 9.8-3 3.6-4.7 8.1-7.4 11.9-1.5 2.1-3.9 3.7-6.2 5.1-2.6 1.6-5.8 2.4-8.1-.5-2.3-2.8-1.7-5.8.3-8.6.9-1.2 1.9-2.4 2.9-3.6.3.2.7.4 1 .5-.2 1.5-.4 3-.5 4.5 6.4-2.9 9.8-8.2 9-14.5 2.4.9 4.5 1.6 6.7 2.4 4.3-3.5 2.7-7.9 2.6-12.8 2.5 2.3 5 4.5 7.4 6.8 3.8-4.6 2.5-9.1-3.6-10.1-3.6-.6-7.3-.1-11.2-.1 2.8 3.5 6.1 7 3.9 12.4-3.4-2.3-6.8-4.2-9.6-6.7-1.8-1.7-3.7-4.4-3.5-6.5.2-1.6 3.5-3 5.4-4.4.4-.3 1-.3.9-.3-4-4.4-8.2-8.9-12.5-13.5.6-.3 1.1-.8 1.6-1.3z"/><path fill="#0086FF" stroke="#231F20" stroke-miterlimit="10" d="M123 56.9c9.5 6.4 10.3 8.7 7.1 18.6-1.5 4.7-5.9 3.5-9.1 4.6-.8.3-2.8-1.8-3.6-3.1-5.5-9.1-5.5-9.1 1-17.2.9-1.1 1.7-2.2 2.8-3.7-2.6-.3-4.7-.6-6.9-.9-7.7-.8-8.2-1.1-13.1-9.1 3.5-.3 6.6-.8 9.8-.7 5.9.2 11.9.5 17.8 1.2 1.8.2 4.3 1.5 4.9 2.9 1.1 2.5.8 5.3-3.2 5.6-2.3.3-4.6 1.1-7.5 1.8z"/><path fill="#FFF" stroke="#231F20" stroke-miterlimit="10" d="M78.9 62.8c9.3-1.8 17.7-3.7 17.3-15.5.5 0 1-.1 1.5-.1 2.7 3 4.9 6.9 8.2 8.6 3.2 1.6 7.6.9 12 1.3-1.9 2.5-3.4 5-5.4 7.2-2.2 2.4-2.7 4.6-.5 7.3 2 2.5 3.4 5.5 5.7 9.3-5.3-2.2-9.7-3.8-14-5.8-2.2-1-3.8-1-5.6.8-2.4 2.3-5.2 4.3-8.8 7.3.5-3.9.7-6.6 1.2-9.2.6-2.7 0-4.4-2.7-5.7-2.8-1.4-5.4-3.4-8.9-5.5zM25.3 158.6c5.3-2.9 10.4-6 15.8-8.6 1.4-.7 3.6.2 5.5.4l.3 1.8c-4.3 2.6-8.6 5.1-13.1 7.8 6.6 1.6 5.8 7.3 6.8 12.1-1.5-1.8-2.8-3.9-4.6-5.3-1.4-1.1-3.6-2.1-5.1-1.7-1 .3-2 2.9-2.1 4.6-.2 5 .8 9.6 5.9 12.2 5.5 2.8 7.6 7.7 8 14.8-8.1-7.1-15.7-13.2-22.6-20.1-4.3-4.2-5-9.9-3.1-16.1 2.2.6 4.2 1.2 6.2 1.6 1 .1 2-.4 3.1-.6-.3-1-.6-2-1-2.9z"/><path fill="#0086FF" stroke="#231F20" stroke-miterlimit="10" d="M87.1 83.9c-3.1 0-5.7-.2-8.2.1-3.8.5-6-1.5-7.3-4.6-1.3-3.2 1.9-3.9 3.6-5.2.6-.4 1.2-.8 2.3-1.6-5.6-2.2-4.9-6.1-3.8-10.4-1.4-.6-2.8-1.2-4.3-1.9.4-1.8.9-3.6 1.3-5.5-.4-.3-.8-.6-1.2-1 7.9-2.3 15.8-4.5 23.9-6.9.1 12.2-10.8 11.4-17.6 16.1 3.2 2.1 6 4.3 9.2 6 3.3 1.7 4.5 3.8 3.3 7.4-.7 2.4-.8 4.9-1.2 7.5z"/><path fill="#FFF" stroke="#231F20" stroke-miterlimit="10" d="M143.2 184.8c3.4-4.5-.8-5.4-2-7.4-1.4-2.2-3-4.3-3.9-7.2 2.2.8 4.3 1.9 6.5 2.5 2.3.6 4.7 1.2 6.9.8 1.3-.3 3-2.3 3.2-3.7.1-1-1.8-2.8-3.1-3.3-2.6-1.1-5.5-1.5-9.2-2.4 5-5.5 9.5 1 14.8-1.8-3.5-1.4-6.3-2.5-10.3-4.1 7-2.3 11.8 3.6 18.4 1.1-.9 2.8-1.4 4.2-1.9 5.7-.5 1.6-1.5 3.3-1.3 4.8.4 4.3.6 8.3-2.6 11.9-.7.8.5 3.3.7 5.1.1 1 0 2.4-.6 3-.7.7-2.3 1.3-3.2 1-4-1.9-8-3.9-12.4-6zM2.7 242.2c.5-.7 1-1.4 1.5-2.2 1.3-1.1 2.6-2.2 3.8-3.2-7.5 11.2-1.6 21.7.8 32 4.2-4.3 8.2-8.3 12.2-12.3l.8.8c-.2 1.8-.3 3.6-.5 5.4.2.1.4.2.7.3 4.7-7.7 9.4-15.3 14.8-24.1-1 9.8.4 19-7.8 25.3-1.3 1-3 1.2-5.6 2.2v7.8c-.4.1-.8.3-1.2.4l-3.6-7.2c-.7 1.8-1.3 3.2-1.9 4.7-.5-.6-1-1.1-1.8-1.9l-1.8 3.6c-.6-.4-1.3-.9-2.1-1.5-.7 1.6-1.3 3-1.9 4.6-.5-.8-.9-1.6-1.6-2.6-.6.8-1.1 1.4-2.1 2.8-.5-2.8-1.2-4.7-1-6.5.5-5.9-.2-11.6-2.6-17-1.5-4.1-.6-7.8.9-11.4zM52.6 123.9c1.8-1.1 3.7-2.3 6.3-3.9-2.1 4.6-3.6 8.4-5.4 12-2.1 3.9-3.2 7.8-.8 13 .3-2.5.5-4 .8-6.2.8 1.1 1.3 1.7 1.8 2.4 1.7-2.9 2.9-9.3 7.3-2-1.8 2.2-3.4 4.1-5 6-1.8 2-4.3 2.6-5.8.3-2.1-3.1-4.1-6.6-4.7-10.2-.5-3 1.3-6.3 2.3-10.2-2.4-3-.9-9.8 3.5-12.4 2-1.2 3.4-3.5 5.3-5.1 1.6-1.3 3.4-2.4 5.2-3.5.3.3.5.6.8.9-1 1.2-2 2.4-2.9 3.7-.9 1.2-1.5 2.6-1.8 4.3 1.1-.9 2.1-1.8 3.2-2.7.3.3.6.6 1 .9-4 3.9-7.9 7.8-11.9 11.7.2.2.5.6.8 1zM105 219c-8.4-.1-15-4.3-21.8-7.4-1-.4-2-2.3-1.9-3.2.2-1 1.8-2.6 2.8-2.6 4 .1 8.1.4 12 1.1 5.2 1 10.4 2.4 15.6 3.7 1 .2 2.7.7 2.7 1.2 0 1.3-.2 3.2-1 3.7-2.7 1.5-5.6 2.4-8.4 3.5zM122.1 191.1c-2.7-3.3-5.2-6.2-7.8-9.4-.2.2-1 .8-1.8 1.5-.5-1-.9-2-1.7-3.6 2-3.4 6.4-4.7 10.2-2.4 4.9 2.9 5.4 6.9 1.1 13.9zM68.1 83c-4.9-.6-7.6-3.7-7.3-7.7.3-4 .6-7.9.9-11.5 3.1.7 6.3 1.4 9.9 2.2-.9 1.4-1.9 3.1-3.1 4.5-4.9 5.5-5 6.7-.4 12.5z"/><path fill="#FFF" stroke="#231F20" stroke-miterlimit="10" d="M68.1 135.3c-2.5-2-4.8-3.5-6.7-5.5-1.1-1.1-2.4-2.9-2.2-4.3.2-1.9 1.5-3.8 2.8-5.3.2-.3 2.9.9 4 2 3.5 3.4 4.4 8.8 2.1 13.1zM44.8 113.3c-1.4-4.8.8-8.5 7.4-12.6-1.6 3.1-6 4.5-3.7 9.2 6.7-4.2 9.4-13.9 20.1-13.9-2.1 2.5-3.6 4.3-5.1 6.1-.3-.1-.5-.2-.8-.4.1-.9.1-1.9.2-4.1-2.5 2.7-5.2 4.4-6 6.7-1.4 4.2-4 6.2-8 7.1-1.4.3-2.6 1.1-4.1 1.9zM134.1 55.5c1.7 6.2 3.3 12 5 18.1-1.6.7-3.3 1.5-5.4 2.5 2.1-7.9-.5-13.9-6.8-19 2.7-.5 5-1.1 7.2-1.6z"/><path fill="#0086FF" stroke="#231F20" stroke-miterlimit="10" d="M113.6 81.9c-7.1.6-14.2 1.2-21.4 1.8 6.1-7.7 9.1-8 21.4-1.8z"/><path fill="#FFF" stroke="#231F20" stroke-miterlimit="10" d="M73.1 159.3c.3-1.7.6-4.3 1.1-7.6 4.5 4.6 8.5 8.7 13.2 13.5-5.3-2.2-9.6-3.9-14.3-5.9zM76.5 178.6c-2.2-3.1-1.6-6 .2-8.4 1.3-1.7 3.7-2.6 5.5-3.8.2.4.5.7.7 1.1-2 3.6-4.2 7.3-6.4 11.1zM163.3 85.5c2.6.2 6.1-2.1 6.9 2.5.7 3.9-1.9 7-6.9 7.8 3.2-2.3 6.2-4.4 3.1-8.9-.8 1.5-1.4 2.7-2.5 4.7-.2-2.5-.4-4.3-.6-6.1zM113.1 162.9c-6.2 2.7-7.2 7.2-4.2 13-.5.2-1 .3-1.4.5-1.1-1.1-3.1-2.3-3.1-3.3.2-2.7.7-5.7 2.2-8 1-1.5 3.7-2 5.6-2.9.3.2.6.5.9.7zM163.4 85.4c-1 .9-2 1.8-2.9 2.7-2.5 2.5-5 2.8-7.9-.5 3.8-.8 5.9-6.6 10.6-2.2.1.1.2 0 .2 0zM147.8 111c3 5.9 2.1 11.6-1.1 17.2.6-2.8 1.5-5.6 1.7-8.4.2-2.9-.3-5.9-.6-8.8zM148.9 155.1c1.6-1.4 2.7-2.5 4-3.7 1.3 1.8 2.6 3.5 4.2 5.7-2.8-.7-5.1-1.2-8.2-2z"/><path stroke="#231F20" stroke-miterlimit="10" d="M69.2 252.4c.3 1.8 1.2 3.8.7 5.3-.6 1.8-2.2 3.7-3.9 4.4-.8.4-3-1.5-4.1-2.8-1.3-1.6-2.2-3.6-3.7-6.4 2.5 1.3 4.1 2.3 5.9 3.1 1.2.6 2.6.8 3.9 1.2.1-1.5.2-2.9.4-4.4.2 0 .5-.2.8-.4zM88.9 185.9c.6-2.9.9-4.6 1.2-6.2.3 0 .6.1.9.1v6.6c-4 .5-9.9-2-10.5-4.7-.7-2.9.2-5.3 3.5-6.9 1.5 3.5 3 6.8 4.9 11.1zM104.1 183.9c.6-1.5 1-2.4 1.6-4.2.6 2.1 1 3.6 1.4 5.4-2.7.2-4.9.3-7.5.5v-11.4c1.7 3.8 3 6.5 4.5 9.7z"/><path fill="#FF0019" stroke="#231F20" stroke-width="3" stroke-miterlimit="10" d="M109.4 4.2s8 1 14.7 4.1c.5.2-10 28.5-9.3 33.8-1.1.5-8.3 0-12.1.9.9-9.3.8-30.5 6.7-38.8zM81 46.7s-8.2-36.6-9.6-37.6c1.4-.8 8.6-4.1 16-4.6.7 0 5.9 38.1 4.7 40-1.7.6-11.1 1.5-11.1 2.2z"/></svg>